<?xml version="1.0" encoding="utf-8"?><svg xmlns="http://www.w3.org/2000/svg" xmlns:xlink="http://www.w3.org/1999/xlink" width="1874" height="685" preserveAspectRatio="xMidYMid" viewBox="0 0 1874 685" style="z-index:1;margin-right:-2px;display:block;background-repeat-y:initial;background-repeat-x:initial;background-color:rgb(241, 242, 243);animation-play-state:paused" ><g transform="translate(937,342.5) scale(1,1) translate(-937,-342.5)" style="transform:matrix(1, 0, 0, 1, 0, 0);animation-play-state:paused" ><linearGradient id="lg-0.6318247623923969" x1="0" x2="1" y1="0" y2="0" style="animation-play-state:paused" ><stop stop-color="#93dbe9" offset="0" style="animation-play-state:paused" ></stop>

  
<stop stop-color="#689cc5" offset="1" style="animation-play-state:paused" ></stop></linearGradient>
<path d="M 0 0 L 0 643.253 Q 187.4 541.75 374.8 512.534 T 749.6 554.731 T 1124.4 408.097 T 1499.2 332.628 T 1874 347.452 L 1874 0 Z" fill="url(#lg-0.6318247623923969)" opacity="0.4" style="opacity:0.4;animation-play-state:paused" ></path>
<path d="M 0 0 L 0 603.71 Q 187.4 583.26 374.8 551.619 T 749.6 476.982 T 1124.4 417.394 T 1499.2 351.34 T 1874 294.766 L 1874 0 Z" fill="url(#lg-0.6318247623923969)" opacity="0.4" style="opacity:0.4;animation-play-state:paused" ></path>
<path d="M 0 0 L 0 665.78 Q 187.4 555.501 374.8 513.485 T 749.6 509.294 T 1124.4 469.146 T 1499.2 384.255 T 1874 304.301 L 1874 0 Z" fill="url(#lg-0.6318247623923969)" opacity="0.4" style="opacity:0.4;animation-play-state:paused" ></path>
<path d="M 0 0 L 0 607.389 Q 187.4 595.323 374.8 576.693 T 749.6 545.499 T 1124.4 397.529 T 1499.2 385.676 T 1874 336.434 L 1874 0 Z" fill="url(#lg-0.6318247623923969)" opacity="0.4" style="opacity:0.4;animation-play-state:paused" ></path>
<path d="M 0 0 L 0 622.318 Q 187.4 631.868 374.8 611.907 T 749.6 451.669 T 1124.4 440.006 T 1499.2 400.899 T 1874 252.63 L 1874 0 Z" fill="url(#lg-0.6318247623923969)" opacity="0.4" style="opacity:0.4;animation-play-state:paused" ></path></g></svg>